<svg xmlns="http://www.w3.org/2000/svg" width="256" height="256" viewBox="0 0 458.4 458.4" role="img" aria-label="NordVPN">
  <style type="text/css">
	.st0{fill:#3E5FFF;}
</style>
  <g transform="translate(0 15.95)">
    <path class="st0" d="M144.3,250.1c-13-17.9-20-39.5-20-61.7c0-58,47-105.1,104.9-105.1s104.9,47,104.9,105.1c0,22.2-7,43.7-20,61.7   l-50.4-81.9l-4.9,8.2l4.9,22.9l-34.6-59.3l-21.4,36.2l5,23.1l-18.1-31.1L144.3,250.1z"/>
    <path d="M116.4,343.2h10.5v-49.4h-10.2V326l-21.6-32.2H83.4v49.4h10.2v-34.1L116.4,343.2z M132.9,326.4c0-10,8.3-17.7,18.6-17.7   c10.3,0,18.4,7.4,18.4,17.5c0,10.2-8.3,17.7-18.5,17.7S132.9,336.5,132.9,326.4z M143,326.3c0,1.1,0.1,2.2,0.5,3.3   c0.4,1.1,1,2,1.8,2.8c0.8,0.8,1.7,1.4,2.8,1.9c1,0.4,2.2,0.7,3.3,0.6c4.6,0,8.3-3.5,8.3-8.6c0-1.1-0.1-2.2-0.6-3.3   c-0.4-1-1-2-1.8-2.8s-1.7-1.4-2.8-1.9c-1-0.4-2.2-0.6-3.3-0.6c-1.1,0-2.2,0.2-3.3,0.6c-1,0.4-2,1.1-2.7,1.9   c-0.8,0.8-1.4,1.8-1.8,2.8C143.2,324,143,325.1,143,326.3L143,326.3z M195.9,309.5c-0.9-0.2-1.8-0.3-2.7-0.4   c-1.8-0.1-3.6,0.4-5.2,1.3c-1.6,0.9-2.8,2.3-3.6,4h-0.1v-4.9H175v33.7h9.7v-14.8c0-6.3,3.3-9.5,8.1-9.5c1.1,0,2.1,0.1,3.2,0.3   L195.9,309.5z M223.8,343.2v-4.3h-0.1c-3.2,4.6-8.3,4.9-10.5,4.9c-9.8,0-16.1-8.5-16.1-17.5c0-8.5,6.5-17.4,16.2-17.4   c1.9,0,3.8,0.3,5.6,1.1c1.8,0.8,3.3,1.9,4.6,3.4h0.1v-19.6h9.9v49.4L223.8,343.2z M223.8,326.3c0-1.1-0.2-2.2-0.6-3.3   c-0.4-1-1-2-1.8-2.8c-0.8-0.8-1.7-1.4-2.8-1.8c-1-0.4-2.1-0.6-3.3-0.6c-1.1,0-2.2,0.2-3.3,0.6c-1,0.4-2,1.1-2.8,1.8   c-0.8,0.8-1.4,1.7-1.8,2.8c-0.4,1-0.6,2.2-0.6,3.3c0,1.1,0.1,2.2,0.5,3.3c0.4,1.1,1,2,1.8,2.8c0.8,0.8,1.7,1.4,2.8,1.9   c1,0.4,2.2,0.7,3.3,0.6c1.1,0,2.2-0.2,3.3-0.6c1-0.4,2-1.1,2.8-1.9c0.8-0.8,1.4-1.8,1.8-2.8C223.6,328.5,223.8,327.4,223.8,326.3z    M254.9,343.2h11.9l18-49.4h-10.9l-13,37.5L248,293.8h-11.1L254.9,343.2z M325.8,309.6c0,10.9-7.7,16.1-18.2,16.1h-7.8v17.4h-10.3   v-49.4H308C318,293.8,325.8,299.1,325.8,309.6z M315.5,309.8c0-4.8-4.1-6.4-8.3-6.4h-7.3v12.8h7.4   C311.2,316.2,315.4,314.4,315.5,309.8L315.5,309.8z M364.5,343.2H375v-49.4h-10.2V326l-21.6-32.2h-11.8v49.4h10.2v-34.1   L364.5,343.2z"/>
    <path d="M380.7,302.9c0-1.2,0.2-2.4,0.7-3.5c0.5-1.1,1.1-2.1,2-3c0.8-0.8,1.8-1.5,2.9-2c1.1-0.5,2.3-0.7,3.5-0.7   c2.4,0,4.7,1,6.4,2.7c1.7,1.7,2.7,4,2.7,6.4c0,1.2-0.2,2.4-0.7,3.5c-0.5,1.1-1.1,2.1-2,3c-0.8,0.8-1.9,1.5-3,2   c-1.1,0.5-2.3,0.7-3.5,0.7c-1.2,0-2.4-0.2-3.5-0.7c-1.1-0.5-2.1-1.1-2.9-2c-0.8-0.8-1.5-1.9-2-3   C380.9,305.3,380.7,304.1,380.7,302.9L380.7,302.9z M382.4,302.9c0,1,0.2,1.9,0.5,2.8c0.4,0.9,0.9,1.7,1.6,2.4   c0.7,0.7,1.5,1.2,2.4,1.6c0.9,0.4,1.9,0.6,2.8,0.6c2,0,3.8-0.8,5.2-2.2c1.4-1.4,2.2-3.3,2.1-5.2c0-2-0.8-3.9-2.1-5.3   c-1.4-1.4-3.3-2.2-5.2-2.2c-1,0-1.9,0.2-2.8,0.6c-0.9,0.4-1.7,0.9-2.4,1.6c-0.7,0.7-1.2,1.5-1.6,2.4   C382.6,300.9,382.4,301.9,382.4,302.9z M388.4,308h-2.1v-10.4h4.1c2,0,3.7,1.1,3.7,3.3c0,0.6-0.1,1.3-0.5,1.8   c-0.4,0.5-0.9,0.9-1.5,1.2l2.2,4.1h-2.4l-1.9-3.7h-1.6V308z M390.2,299.7h-1.8v2.6h1.8c0.8,0,1.6-0.3,1.6-1.3   C391.9,300,391,299.7,390.2,299.7L390.2,299.7z"/>
  </g>
</svg>
