<?xml version="1.0" encoding="UTF-8" standalone="no"?>
<svg
   width="1000"
   height="225.047"
   viewBox="0 0 1000 225.047"
   fill="none"
   version="1.1"
   id="svg14183"
   sodipodi:docname="protonvpn.svg"
   inkscape:version="1.2.2 (732a01da63, 2022-12-09)"
   xmlns:inkscape="http://www.inkscape.org/namespaces/inkscape"
   xmlns:sodipodi="http://sodipodi.sourceforge.net/DTD/sodipodi-0.dtd"
   xmlns="http://www.w3.org/2000/svg"
   xmlns:svg="http://www.w3.org/2000/svg"
   xmlns:rdf="http://www.w3.org/1999/02/22-rdf-syntax-ns#"
   xmlns:cc="http://creativecommons.org/ns#"
   xmlns:dc="http://purl.org/dc/elements/1.1/">
  <title
     id="title14203">Proton VPN</title>
  <sodipodi:namedview
     id="namedview14185"
     pagecolor="#ffffff"
     bordercolor="#666666"
     borderopacity="1.0"
     inkscape:showpageshadow="2"
     inkscape:pageopacity="0.0"
     inkscape:pagecheckerboard="0"
     inkscape:deskcolor="#d1d1d1"
     showgrid="false"
     inkscape:zoom="0.803"
     inkscape:cx="500"
     inkscape:cy="112.0797"
     inkscape:window-width="1366"
     inkscape:window-height="705"
     inkscape:window-x="-8"
     inkscape:window-y="-8"
     inkscape:window-maximized="1"
     inkscape:current-layer="svg14183" />
  <g
     id="g14199"
     transform="matrix(1.8234165,0,0,1.8234165,25.000002,-11.468281)">
    <path
       d="M 453.182,41.165 H 428.355 V 95 h 9.835 V 81.5987 c 0,-1.3019 0.513,-2.5599 1.442,-3.4789 0.918,-0.9189 2.175,-1.4441 3.475,-1.4441 h 10.075 c 4.699,0 9.202,-1.8707 12.513,-5.1855 3.322,-3.3257 5.179,-7.8329 5.179,-12.5261 0.011,-2.3302 -0.437,-4.6494 -1.322,-6.8046 -0.885,-2.1551 -2.185,-4.1243 -3.835,-5.7762 -1.651,-1.6519 -3.596,-2.9647 -5.748,-3.8618 -2.142,-0.8971 -4.448,-1.3565 -6.787,-1.3565 z m 7.748,17.6569 c 0,1.1049 -0.218,2.1989 -0.645,3.2163 -0.426,1.0174 -1.038,1.9473 -1.824,2.724 -0.776,0.7768 -1.705,1.4003 -2.721,1.8161 -1.017,0.4266 -2.109,0.6345 -3.213,0.6345 H 438.146 V 50.442 h 14.381 c 1.104,0 2.196,0.2188 3.223,0.6454 1.017,0.4267 1.946,1.0502 2.721,1.827 0.776,0.7876 1.399,1.7175 1.814,2.7349 0.416,1.0284 0.634,2.1224 0.623,3.2273 z"
       fill="#ffffff"
       id="path14142" />
    <path
       d="M 393.812,94.8032 374,41.0119 h 11.19 l 13.037,38.4974 c 0.513,1.3784 0.885,2.8006 1.103,4.2556 h 0.11 c 0.164,-1.4659 0.535,-2.8991 1.103,-4.2556 l 13.081,-38.4974 h 11.266 l -19.91,53.7913 z"
       fill="#ffffff"
       id="path14144" />
    <path
       d="M 474.557,94.8022 V 41 h 8.622 l 25.374,33.3666 c 0.918,1.1487 1.705,2.3849 2.372,3.6976 h 0.153 c -0.175,-1.6191 -0.252,-3.2491 -0.241,-4.8791 V 41 H 521 v 53.7913 h -8.622 L 486.927,61.4247 c -0.896,-1.1596 -1.683,-2.3958 -2.36,-3.6977 h -0.088 c 0.143,1.6191 0.197,3.2492 0.164,4.8792 v 32.1851 h -10.086 z"
       fill="#ffffff"
       id="path14146" />
    <path
       d="m 144,80.3119 v 13.8456 h 9.668 V 80.9167 c 0,-1.2852 0.504,-2.5272 1.417,-3.4344 0.903,-0.9072 2.138,-1.4256 3.416,-1.4256 h 9.915 c 4.619,0 9.055,-1.8468 12.321,-5.1408 3.265,-3.2832 5.102,-7.7436 5.102,-12.3875 0,-4.644 -1.837,-9.1044 -5.102,-12.3984 C 177.471,42.8468 173.035,41 168.405,41 H 144 v 17.3016 h 9.668 v -8.154 h 14.093 c 2.191,0 4.286,0.8748 5.832,2.43 1.547,1.5552 2.417,3.6612 2.417,5.8644 0,2.2032 -0.87,4.3091 -2.417,5.8643 -1.546,1.5552 -3.641,2.43 -5.832,2.43 h -10.237 c -1.773,0 -3.534,0.3456 -5.167,1.0368 -1.643,0.6804 -3.126,1.6848 -4.383,2.9484 -1.256,1.2636 -2.245,2.7648 -2.932,4.4064 -0.688,1.6308 -1.042,3.402 -1.042,5.184 z"
       fill="#ffffff"
       id="path14148" />
    <path
       d="M 187.332,94.1574 V 73.0651 c 0,-8.6076 4.995,-15.4548 14.996,-15.4548 1.6,-0.0216 3.201,0.1512 4.769,0.5292 v 8.6724 c -1.139,-0.0756 -2.116,-0.0756 -2.578,-0.0756 -5.296,0 -7.573,2.4408 -7.573,7.3872 v 20.0339 z"
       fill="#ffffff"
       id="path14150" />
    <path
       d="m 209.975,76.2728 c 0,-10.5839 7.949,-18.6515 19.013,-18.6515 11.064,0 19.013,8.0676 19.013,18.6515 0,10.584 -7.949,18.7272 -19.013,18.7272 -11.064,0 -19.013,-8.154 -19.013,-18.7272 z m 28.552,0 c 0,-6.0155 -4.017,-10.2815 -9.539,-10.2815 -5.532,0 -9.538,4.2552 -9.538,10.2815 0,6.0912 4.017,10.2816 9.538,10.2816 5.532,0 9.539,-4.2012 9.539,-10.2816 z"
       fill="#ffffff"
       id="path14152" />
    <path
       d="m 278.744,76.2728 c 0,-10.5839 7.949,-18.6515 19.013,-18.6515 11.053,0 19.002,8.0676 19.002,18.6515 C 316.759,86.8568 308.81,95 297.757,95 286.693,95 278.744,86.846 278.744,76.2728 Z m 28.541,0 c 0,-6.0155 -4.017,-10.2815 -9.539,-10.2815 -5.521,0 -9.538,4.2552 -9.538,10.2815 0,6.0912 4.017,10.2816 9.538,10.2816 5.522,0 9.539,-4.2012 9.539,-10.2816 z"
       fill="#ffffff"
       id="path14154" />
    <path
       d="M 321.754,94.1576 V 73.8321 c 0,-9.4392 5.984,-16.2216 16.661,-16.2216 10.602,0 16.585,6.7716 16.585,16.2216 v 20.3255 h -9.539 V 74.5881 c 0,-5.2488 -2.352,-8.532 -7.046,-8.532 -4.694,0 -7.047,3.2724 -7.047,8.532 v 19.5695 z"
       fill="#ffffff"
       id="path14156" />
    <path
       d="m 275.865,66.0663 h -10.376 v 13.3272 c 0,4.644 1.665,6.7716 6.434,6.7716 0.451,0 1.59,0 3.029,-0.0756 v 7.8408 c -1.965,0.5292 -3.705,0.8424 -5.607,0.8424 -8.024,0 -13.481,-4.8708 -13.481,-14.0832 V 66.0663 h -6.445 v -7.6895 h 1.612 c 0.633,0 1.267,-0.1296 1.847,-0.3672 0.591,-0.2484 1.117,-0.6048 1.568,-1.0584 0.452,-0.4536 0.806,-0.9828 1.053,-1.5768 0.247,-0.594 0.365,-1.2204 0.365,-1.8576 V 46.27 h 9.614 v 12.1068 h 10.377 v 7.6895 z"
       fill="#ffffff"
       id="path14158" />
    <g
       clip-path="url(#clip0_10975_186759)"
       id="g14164">
      <path
         fill-rule="evenodd"
         clip-rule="evenodd"
         d="m 42.5777,110.323 c 4.0286,7.242 14.3739,7.634 18.9477,0.718 L 104.173,46.5529 c 4.522,-6.8387 0.195,-16.0076 -7.9946,-16.9394 L 12.3538,20.0757 C 3.41684,19.0589 -2.94633,28.4823 1.40053,36.2969 Z"
         fill="url(#paint0_linear_10975_186759)"
         id="path14160"
         style="fill:url(#paint0_linear_10975_186759)" />
      <path
         d="M 44.9795,103.568 48.7644,97.9224 77.514,54.4946 c 2.5136,-3.7969 0.1144,-8.8904 -4.4335,-9.4125 L 1.73145,36.8906 38.6923,103.337 c 1.3489,2.378 4.7596,2.509 6.2872,0.231 z"
         fill="url(#paint1_linear_10975_186759)"
         id="path14162"
         style="fill:url(#paint1_linear_10975_186759)" />
    </g>
  </g>
  <defs
     id="defs14181">
    <linearGradient
       id="paint0_linear_10975_186759"
       x1="95.854599"
       y1="110.318"
       x2="27.648899"
       y2="-7.3041401"
       gradientUnits="userSpaceOnUse">
      <stop
         offset="0.0660125"
         stop-color="#8EFFEE"
         id="stop14166" />
      <stop
         offset="0.4499"
         stop-color="#C9C7FF"
         id="stop14168" />
      <stop
         offset="1"
         stop-color="#7341FF"
         id="stop14170" />
    </linearGradient>
    <linearGradient
       id="paint1_linear_10975_186759"
       x1="102.091"
       y1="-85.022102"
       x2="6.57935"
       y2="119.269"
       gradientUnits="userSpaceOnUse">
      <stop
         offset="0.4799"
         stop-color="#6D4AFF"
         id="stop14173" />
      <stop
         offset="0.9944"
         stop-color="#00F0C3"
         id="stop14175" />
    </linearGradient>
    <clipPath
       id="clip0_10975_186759">
      <rect
         width="106"
         height="96"
         fill="#ffffff"
         transform="translate(0,20)"
         id="rect14178"
         x="0"
         y="0" />
    </clipPath>
  </defs>
  <metadata
     id="metadata14201">
    <rdf:RDF>
      <cc:Work
         rdf:about="">
        <dc:title>Proton VPN</dc:title>
        <dc:subject>
          <rdf:Bag>
            <rdf:li>Proton VPN</rdf:li>
            <rdf:li>Logo</rdf:li>
            <rdf:li>Logotipo</rdf:li>
            <rdf:li>Icon</rdf:li>
            <rdf:li>Ícono</rdf:li>
            <rdf:li>Isotype</rdf:li>
            <rdf:li>Isotipo</rdf:li>
            <rdf:li>SVG</rdf:li>
            <rdf:li>Vector</rdf:li>
            <rdf:li>Scalable</rdf:li>
            <rdf:li>Escalable</rdf:li>
            <rdf:li>Proton AG</rdf:li>
            <rdf:li>Open source</rdf:li>
            <rdf:li>Código abierto</rdf:li>
          </rdf:Bag>
        </dc:subject>
      </cc:Work>
    </rdf:RDF>
  </metadata>
</svg>
