<svg xmlns="http://www.w3.org/2000/svg" viewBox="0 0 821 360" role="img" aria-label="alle premium dark wordmark">
  <title>alle wordmark (premium dark)</title>
  <defs>
    <radialGradient id="markBg" cx="34%" cy="24%" r="86%" gradientUnits="objectBoundingBox">
      <stop offset="0" stop-color="#273270"/>
      <stop offset="0.48" stop-color="#10172f"/>
      <stop offset="1" stop-color="#030712"/>
    </radialGradient>
    <linearGradient id="mark" x1="76" y1="64" x2="284" y2="284" gradientUnits="userSpaceOnUse">
      <stop offset="0" stop-color="#f8fafc"/>
      <stop offset="0.55" stop-color="#a5f3fc"/>
      <stop offset="1" stop-color="#818cf8"/>
    </linearGradient>
    <linearGradient id="word" x1="430" y1="74" x2="1220" y2="278" gradientUnits="userSpaceOnUse">
      <stop offset="0" stop-color="#030712"/>
      <stop offset="0.54" stop-color="#273270"/>
      <stop offset="1" stop-color="#0891b2"/>
    </linearGradient>
    <linearGradient id="core" x1="0" y1="0" x2="360" y2="360" gradientUnits="userSpaceOnUse">
      <stop offset="0" stop-color="#4f46e5"/>
      <stop offset="1" stop-color="#06b6d4"/>
    </linearGradient>
  </defs>

  <rect x="24" y="24" width="312" height="312" rx="72" fill="url(#markBg)"/>
  <path d="M76 277 C122 244 238 243 284 277" fill="none" stroke="#38bdf8" stroke-opacity="0.16" stroke-width="10" stroke-linecap="round"/>
  <g fill="none" stroke="url(#mark)" stroke-width="28" stroke-linecap="round" stroke-linejoin="round">
    <path d="M180 252 L116 116"/>
    <path d="M180 252 L244 116"/>
    <path d="M134 156 L226 156"/>
  </g>
  <g>
    <circle cx="180" cy="252" r="17" fill="#eef2ff"/>
    <circle cx="180" cy="252" r="7" fill="url(#core)"/>
    <circle cx="116" cy="116" r="17" fill="#eef2ff"/>
    <circle cx="116" cy="116" r="7" fill="url(#core)"/>
    <circle cx="244" cy="116" r="17" fill="#eef2ff"/>
    <circle cx="244" cy="116" r="7" fill="url(#core)"/>
  </g>
    <!-- "alle" set in Comfortaa Medium (wght 500), outlined to paths so it renders without the font installed. -->
  <g fill="url(#word)">
    <path d="M327.00,-4.69C276.49,-4.69 231.22,7.46 191.20,31.75C151.18,56.05 119.53,89.16 96.24,131.10C72.95,173.03 61.31,220.30 61.31,272.91C61.31,326.19 73.47,373.81 97.81,415.76C122.14,457.71 155.24,490.86 197.12,515.19C238.99,539.53 286.18,551.69 338.69,551.69C391.20,551.69 438.22,539.53 479.77,515.19C521.31,490.86 554.24,457.69 578.58,415.69C602.91,373.69 615.31,326.13 615.77,273.00L582.31,256.38C582.31,207.05 571.13,162.68 548.77,123.28C526.41,83.88 496.04,52.70 457.66,29.74C419.28,6.79 375.73,-4.69 327.00,-4.69ZM338.69,71.46C375.92,71.46 409.14,80.20 438.35,97.69C467.55,115.18 490.63,139.26 507.58,169.92C524.53,200.59 533.00,234.96 533.00,273.05C533.00,311.79 524.53,346.36 507.58,376.77C490.63,407.18 467.55,431.24 438.35,448.96C409.15,466.68 375.94,475.54 338.72,475.54C302.14,475.54 269.08,466.68 239.54,448.96C210.00,431.24 186.59,407.19 169.31,376.81C152.03,346.43 143.38,311.84 143.38,273.06C143.38,234.92 152.03,200.53 169.31,169.88C186.59,139.24 209.99,115.18 239.52,97.69C269.05,80.20 302.11,71.46 338.69,71.46ZM573.13,-0.31C560.73,-0.31 550.51,3.60 542.46,11.42C534.41,19.24 530.39,29.33 530.39,41.69L530.39,207.15L549.39,294.46L615.77,273.00L615.77,41.69C615.77,29.33 611.76,19.24 603.74,11.42C595.72,3.60 585.52,-0.31 573.13,-0.31Z" transform="translate(416 256) scale(0.238 -0.238)"/>
    <path d="M211.69,0.00C184.20,0.00 159.71,7.54 138.19,22.62C116.68,37.69 99.94,58.48 87.96,84.97C75.99,111.47 70.00,142.04 70.00,176.69L70.00,739.31C70.00,751.74 73.84,761.80 81.52,769.48C89.20,777.16 99.26,781.00 111.69,781.00C124.13,781.00 134.18,777.16 141.86,769.48C149.54,761.80 153.38,751.74 153.38,739.31L153.38,176.69C153.38,149.26 158.87,126.85 169.84,109.46C180.81,92.08 194.76,83.38 211.69,83.38L236.69,83.38C247.81,83.38 256.71,79.54 263.38,71.86C270.05,64.18 273.38,54.13 273.38,41.69C273.38,29.26 268.56,19.20 258.92,11.52C249.27,3.84 236.74,0.00 221.31,0.00Z" transform="translate(558.888 256) scale(0.238 -0.238)"/>
    <path d="M211.69,0.00C184.20,0.00 159.71,7.54 138.19,22.62C116.68,37.69 99.94,58.48 87.96,84.97C75.99,111.47 70.00,142.04 70.00,176.69L70.00,739.31C70.00,751.74 73.84,761.80 81.52,769.48C89.20,777.16 99.26,781.00 111.69,781.00C124.13,781.00 134.18,777.16 141.86,769.48C149.54,761.80 153.38,751.74 153.38,739.31L153.38,176.69C153.38,149.26 158.87,126.85 169.84,109.46C180.81,92.08 194.76,83.38 211.69,83.38L236.69,83.38C247.81,83.38 256.71,79.54 263.38,71.86C270.05,64.18 273.38,54.13 273.38,41.69C273.38,29.26 268.56,19.20 258.92,11.52C249.27,3.84 236.74,0.00 221.31,0.00Z" transform="translate(609.432 256) scale(0.238 -0.238)"/>
    <path d="M340.77,-4.69C286.36,-4.69 238.12,7.14 196.04,30.81C153.96,54.47 120.99,87.26 97.12,129.15C73.24,171.05 61.31,219.00 61.31,273.00C61.31,327.67 72.58,375.83 95.12,417.50C117.65,459.17 148.79,491.95 188.54,515.85C228.28,539.74 274.03,551.69 325.77,551.69C376.85,551.69 421.17,540.19 458.73,517.19C496.29,494.19 525.26,462.41 545.62,421.85C565.97,381.28 576.15,334.90 576.15,282.69C576.15,271.41 572.51,262.29 565.23,255.35C557.95,248.40 548.56,244.92 537.08,244.92L118.85,244.92L118.85,313.85L541.69,313.85L499.31,283.77C499.56,320.79 492.67,353.97 478.62,383.31C464.56,412.64 444.60,435.67 418.73,452.38C392.86,469.10 361.87,477.46 325.77,477.46C287.77,477.46 254.69,468.67 226.54,451.08C198.38,433.49 176.73,409.27 161.58,378.42C146.42,347.58 138.85,312.44 138.85,273.00C138.85,233.56 147.53,198.59 164.88,168.08C182.24,137.56 206.05,113.51 236.31,95.92C266.56,78.33 301.38,69.54 340.77,69.54C363.74,69.54 386.99,73.60 410.50,81.73C434.01,89.86 452.90,99.85 467.15,111.69C475.31,118.10 484.41,121.47 494.46,121.81C504.51,122.14 513.18,119.33 520.46,113.38C529.95,104.77 534.91,95.38 535.35,85.23C535.78,75.08 531.49,66.36 522.46,59.08C500.26,40.62 472.21,25.37 438.31,13.35C404.41,1.32 371.90,-4.69 340.77,-4.69Z" transform="translate(659.976 256) scale(0.238 -0.238)"/>
  </g>
</svg>
